<svg xmlns="http://www.w3.org/2000/svg" xmlns:xlink="http://www.w3.org/1999/xlink" width="800" zoomAndPan="magnify" viewBox="0 0 600 329.249999" height="439" preserveAspectRatio="xMidYMid meet" version="1.0"><defs><g/><clipPath id="d2ceebe915"><path d="M 0.683594 0 L 599.316406 0 L 599.316406 328.5 L 0.683594 328.5 Z M 0.683594 0 " clip-rule="nonzero"/></clipPath><clipPath id="72a7ba1618"><path d="M 236.984375 188.449219 L 362.683594 188.449219 L 362.683594 220.597656 L 236.984375 220.597656 Z M 236.984375 188.449219 " clip-rule="nonzero"/></clipPath><clipPath id="08d0507d11"><path d="M 246.710938 188.449219 L 353.28125 188.449219 C 358.652344 188.449219 363.007812 192.800781 363.007812 198.171875 L 363.007812 210.855469 C 363.007812 216.226562 358.652344 220.578125 353.28125 220.578125 L 246.710938 220.578125 C 241.339844 220.578125 236.984375 216.226562 236.984375 210.855469 L 236.984375 198.171875 C 236.984375 192.800781 241.339844 188.449219 246.710938 188.449219 Z M 246.710938 188.449219 " clip-rule="nonzero"/></clipPath><clipPath id="16b6268b83"><path d="M 537 219 L 599.316406 219 L 599.316406 328.5 L 537 328.5 Z M 537 219 " clip-rule="nonzero"/></clipPath><clipPath id="ecf53856b9"><path d="M 503.441406 280.816406 L 583.335938 200.917969 L 661.121094 278.699219 L 581.222656 358.597656 Z M 503.441406 280.816406 " clip-rule="nonzero"/></clipPath><clipPath id="6c306e2174"><path d="M 503.441406 280.816406 L 583.335938 200.917969 L 661.121094 278.699219 L 581.222656 358.597656 Z M 503.441406 280.816406 " clip-rule="nonzero"/></clipPath><clipPath id="2f5a53c125"><path d="M 0.683594 0 L 53 0 L 53 94 L 0.683594 94 Z M 0.683594 0 " clip-rule="nonzero"/></clipPath><clipPath id="f7318c297e"><path d="M -70.617188 34.132812 L 9.28125 -45.765625 L 87.0625 32.015625 L 7.164062 111.914062 Z M -70.617188 34.132812 " clip-rule="nonzero"/></clipPath><clipPath id="db5c01a9f7"><path d="M -70.617188 34.132812 L 9.28125 -45.765625 L 87.0625 32.015625 L 7.164062 111.914062 Z M -70.617188 34.132812 " clip-rule="nonzero"/></clipPath></defs><g clip-path="url(#d2ceebe915)"><path fill="#ffffff" d="M 0.683594 0 L 599.316406 0 L 599.316406 328.5 L 0.683594 328.5 Z M 0.683594 0 " fill-opacity="1" fill-rule="nonzero"/><path fill="#004aad" d="M 0.683594 0 L 599.316406 0 L 599.316406 328.5 L 0.683594 328.5 Z M 0.683594 0 " fill-opacity="1" fill-rule="nonzero"/></g><g clip-path="url(#72a7ba1618)"><g clip-path="url(#08d0507d11)"><path stroke-linecap="butt" transform="matrix(0.748295, 0, 0, 0.748295, 236.985606, 188.448755)" fill="none" stroke-linejoin="miter" d="M 12.996647 0.000619162 L 155.414079 0.000619162 C 162.591851 0.000619162 168.412371 5.815919 168.412371 12.993691 L 168.412371 29.943673 C 168.412371 37.121445 162.591851 42.936745 155.414079 42.936745 L 12.996647 42.936745 C 5.818875 42.936745 -0.00164558 37.121445 -0.00164558 29.943673 L -0.00164558 12.993691 C -0.00164558 5.815919 5.818875 0.000619162 12.996647 0.000619162 Z M 12.996647 0.000619162 " stroke="#ffbd59" stroke-width="4" stroke-opacity="1" stroke-miterlimit="4"/></g></g><g clip-path="url(#16b6268b83)"><g clip-path="url(#ecf53856b9)"><g clip-path="url(#6c306e2174)"><path fill="#ffbd59" d="M 613.996094 232.195312 C 596.921875 215.121094 569.136719 215.121094 552.0625 232.195312 C 550.875 233.378906 549.761719 234.628906 548.71875 235.945312 C 547.679688 237.257812 546.714844 238.625 545.832031 240.050781 C 544.945312 241.476562 544.144531 242.945312 543.429688 244.464844 C 542.714844 245.980469 542.089844 247.53125 541.554688 249.121094 C 541.015625 250.710938 540.570312 252.324219 540.222656 253.964844 C 539.871094 255.605469 539.613281 257.257812 539.453125 258.925781 C 539.292969 260.597656 539.226562 262.269531 539.257812 263.945312 C 539.289062 265.621094 539.417969 267.292969 539.640625 268.953125 C 538.25 274.4375 537.925781 279.980469 538.667969 285.589844 C 538.203125 287.421875 537.851562 289.277344 537.625 291.15625 C 537.398438 293.035156 537.292969 294.917969 537.308594 296.8125 C 537.324219 298.703125 537.460938 300.585938 537.722656 302.460938 C 537.980469 304.335938 538.363281 306.183594 538.863281 308.007812 C 539.363281 309.832031 539.976562 311.617188 540.707031 313.363281 C 541.4375 315.109375 542.28125 316.800781 543.230469 318.4375 C 544.179688 320.070312 545.230469 321.640625 546.382812 323.140625 C 547.539062 324.640625 548.78125 326.058594 550.121094 327.398438 C 567.195312 344.472656 594.976562 344.472656 612.054688 327.398438 C 613.238281 326.210938 614.351562 324.960938 615.394531 323.648438 C 616.4375 322.335938 617.398438 320.964844 618.285156 319.539062 C 619.167969 318.117188 619.96875 316.644531 620.683594 315.128906 C 621.398438 313.613281 622.023438 312.058594 622.5625 310.46875 C 623.097656 308.882812 623.542969 307.265625 623.894531 305.628906 C 624.246094 303.988281 624.5 302.332031 624.660156 300.664062 C 624.824219 298.996094 624.886719 297.320312 624.855469 295.644531 C 624.824219 293.96875 624.695312 292.300781 624.472656 290.636719 C 625.863281 285.15625 626.1875 279.609375 625.445312 274.003906 C 625.914062 272.171875 626.261719 270.3125 626.488281 268.4375 C 626.71875 266.558594 626.824219 264.671875 626.808594 262.78125 C 626.792969 260.886719 626.652344 259.003906 626.394531 257.132812 C 626.132812 255.257812 625.753906 253.40625 625.253906 251.582031 C 624.753906 249.757812 624.136719 247.972656 623.40625 246.226562 C 622.675781 244.484375 621.835938 242.792969 620.886719 241.15625 C 619.933594 239.519531 618.882812 237.953125 617.730469 236.453125 C 616.578125 234.953125 615.332031 233.53125 613.996094 232.195312 Z M 540.105469 271.761719 C 540.488281 273.683594 540.996094 275.574219 541.632812 277.425781 C 540.789062 279.1875 540.0625 280.996094 539.457031 282.851562 C 539.191406 279.128906 539.40625 275.429688 540.105469 271.761719 Z M 613.230469 293.378906 C 596.570312 310.039062 569.460938 310.039062 552.800781 293.378906 C 548.257812 288.84375 544.917969 283.546875 542.777344 277.492188 C 544.855469 273.289062 547.554688 269.53125 550.871094 266.21875 C 567.53125 249.558594 594.640625 249.554688 611.300781 266.21875 C 615.847656 270.753906 619.191406 276.046875 621.335938 282.101562 C 619.257812 286.304688 616.5625 290.0625 613.242188 293.375 Z M 621.792969 283.519531 C 622.519531 285.828125 623.050781 288.183594 623.378906 290.582031 C 622.429688 294.261719 621.011719 297.75 619.121094 301.046875 C 617.234375 304.34375 614.949219 307.335938 612.257812 310.019531 C 595.597656 326.679688 568.488281 326.679688 551.828125 310.019531 C 550.191406 308.386719 548.699219 306.632812 547.351562 304.753906 C 546 302.878906 544.8125 300.90625 543.78125 298.835938 C 542.753906 296.765625 541.902344 294.625 541.222656 292.414062 C 540.542969 290.203125 540.050781 287.953125 539.738281 285.664062 C 540.34375 283.328125 541.140625 281.058594 542.132812 278.855469 C 544.347656 284.652344 547.652344 289.746094 552.042969 294.132812 C 569.121094 311.207031 596.902344 311.207031 613.976562 294.132812 C 617.128906 290.992188 619.738281 287.449219 621.804688 283.511719 Z M 612.039062 265.472656 C 594.964844 248.398438 567.179688 248.398438 550.105469 265.472656 C 546.960938 268.613281 544.355469 272.148438 542.292969 276.082031 C 541.566406 273.773438 541.035156 271.417969 540.707031 269.023438 C 541.65625 265.34375 543.078125 261.855469 544.964844 258.558594 C 546.851562 255.261719 549.140625 252.269531 551.828125 249.585938 C 568.488281 232.925781 595.597656 232.925781 612.257812 249.585938 C 613.890625 251.21875 615.386719 252.972656 616.734375 254.847656 C 618.085938 256.726562 619.273438 258.699219 620.300781 260.769531 C 621.332031 262.839844 622.183594 264.980469 622.863281 267.191406 C 623.542969 269.398438 624.039062 271.652344 624.347656 273.941406 C 623.742188 276.277344 622.945312 278.546875 621.953125 280.75 C 619.742188 274.949219 616.441406 269.855469 612.054688 265.464844 Z M 611.300781 326.644531 C 594.640625 343.308594 567.53125 343.304688 550.871094 326.644531 C 549.644531 325.417969 548.496094 324.117188 547.425781 322.75 C 546.355469 321.382812 545.375 319.953125 544.476562 318.464844 C 543.582031 316.976562 542.78125 315.4375 542.074219 313.851562 C 541.367188 312.265625 540.757812 310.640625 540.25 308.980469 C 539.738281 307.320312 539.332031 305.636719 539.027344 303.925781 C 538.722656 302.214844 538.523438 300.492188 538.429688 298.757812 C 538.335938 297.023438 538.347656 295.289062 538.464844 293.558594 C 538.585938 291.824219 538.808594 290.105469 539.132812 288.398438 C 539.972656 292.636719 541.410156 296.660156 543.449219 300.46875 C 545.484375 304.28125 548.03125 307.710938 551.089844 310.761719 C 568.164062 327.835938 595.949219 327.835938 613.023438 310.761719 C 615.464844 308.324219 617.585938 305.636719 619.386719 302.699219 C 621.191406 299.761719 622.625 296.652344 623.6875 293.371094 C 623.910156 296.425781 623.804688 299.46875 623.371094 302.503906 C 622.941406 305.535156 622.1875 308.488281 621.121094 311.359375 C 620.050781 314.230469 618.691406 316.953125 617.035156 319.53125 C 615.378906 322.109375 613.46875 324.480469 611.300781 326.644531 Z M 624 287.835938 C 623.617188 285.914062 623.105469 284.027344 622.472656 282.171875 C 623.320312 280.410156 624.050781 278.597656 624.65625 276.738281 C 624.921875 280.460938 624.703125 284.160156 624.007812 287.828125 Z M 624.972656 271.203125 C 624.132812 266.964844 622.691406 262.941406 620.65625 259.128906 C 618.617188 255.320312 616.070312 251.890625 613.011719 248.835938 C 595.9375 231.761719 568.15625 231.765625 551.082031 248.839844 C 548.640625 251.273438 546.519531 253.960938 544.71875 256.902344 C 542.914062 259.839844 541.480469 262.949219 540.417969 266.230469 C 540.195312 263.171875 540.300781 260.128906 540.734375 257.09375 C 541.164062 254.0625 541.917969 251.109375 542.988281 248.234375 C 544.054688 245.363281 545.417969 242.640625 547.074219 240.0625 C 548.734375 237.484375 550.644531 235.113281 552.8125 232.945312 C 569.472656 216.289062 596.582031 216.285156 613.242188 232.945312 C 614.472656 234.175781 615.621094 235.472656 616.6875 236.839844 C 617.757812 238.210938 618.742188 239.640625 619.636719 241.128906 C 620.53125 242.617188 621.332031 244.152344 622.039062 245.738281 C 622.75 247.324219 623.355469 248.949219 623.867188 250.609375 C 624.375 252.269531 624.78125 253.957031 625.085938 255.667969 C 625.390625 257.375 625.589844 259.097656 625.683594 260.832031 C 625.777344 262.566406 625.765625 264.300781 625.648438 266.035156 C 625.53125 267.765625 625.308594 269.488281 624.980469 271.191406 Z M 624.972656 271.203125 " fill-opacity="1" fill-rule="nonzero"/></g></g></g><g fill="#ffffff" fill-opacity="1"><g transform="translate(185.157116, 175.675495)"><g><path d="M 1.1875 -8.453125 L 8.890625 -8.453125 C 8.960938 -7.921875 9.15625 -7.390625 9.46875 -6.859375 C 9.789062 -6.335938 10.265625 -5.898438 10.890625 -5.546875 C 11.523438 -5.191406 12.367188 -5.015625 13.421875 -5.015625 C 14.765625 -5.015625 15.765625 -5.238281 16.421875 -5.6875 C 17.078125 -6.132812 17.40625 -6.738281 17.40625 -7.5 C 17.40625 -8.257812 17.1875 -8.820312 16.75 -9.1875 C 16.320312 -9.5625 15.6875 -9.800781 14.84375 -9.90625 L 9.28125 -10.5 C 6.851562 -10.757812 4.960938 -11.566406 3.609375 -12.921875 C 2.253906 -14.285156 1.578125 -16.113281 1.578125 -18.40625 C 1.578125 -20.957031 2.546875 -23.007812 4.484375 -24.5625 C 6.421875 -26.113281 9.320312 -26.890625 13.1875 -26.890625 C 15.976562 -26.890625 18.226562 -26.5 19.9375 -25.71875 C 21.644531 -24.945312 22.914062 -23.914062 23.75 -22.625 C 24.582031 -21.332031 25.050781 -19.910156 25.15625 -18.359375 L 17.328125 -18.359375 C 17.222656 -19.222656 16.820312 -19.910156 16.125 -20.421875 C 15.425781 -20.941406 14.460938 -21.203125 13.234375 -21.203125 C 12.148438 -21.203125 11.265625 -21.007812 10.578125 -20.625 C 9.898438 -20.25 9.5625 -19.703125 9.5625 -18.984375 C 9.5625 -18.410156 9.753906 -17.925781 10.140625 -17.53125 C 10.535156 -17.132812 11.207031 -16.894531 12.15625 -16.8125 L 16.703125 -16.421875 C 19.753906 -16.160156 21.960938 -15.316406 23.328125 -13.890625 C 24.703125 -12.472656 25.390625 -10.554688 25.390625 -8.140625 C 25.390625 -6.421875 24.992188 -4.894531 24.203125 -3.5625 C 23.410156 -2.238281 22.132812 -1.203125 20.375 -0.453125 C 18.613281 0.296875 16.242188 0.671875 13.265625 0.671875 C 11.109375 0.671875 9.28125 0.414062 7.78125 -0.09375 C 6.28125 -0.613281 5.0625 -1.304688 4.125 -2.171875 C 3.1875 -3.035156 2.488281 -4.007812 2.03125 -5.09375 C 1.570312 -6.175781 1.289062 -7.296875 1.1875 -8.453125 Z M 1.1875 -8.453125 "/></g></g></g><g fill="#ffffff" fill-opacity="1"><g transform="translate(209.91047, 175.675495)"><g><path d="M 12.4375 -28.390625 L 12.4375 -28.078125 L 8.015625 -28.078125 L 8.015625 -29.21875 C 8.015625 -30.613281 8.378906 -31.597656 9.109375 -32.171875 C 9.847656 -32.753906 10.828125 -33.046875 12.046875 -33.046875 C 13.097656 -33.046875 13.957031 -32.875 14.625 -32.53125 C 15.300781 -32.1875 15.894531 -31.847656 16.40625 -31.515625 C 16.914062 -31.191406 17.472656 -31.03125 18.078125 -31.03125 C 18.523438 -31.03125 18.828125 -31.175781 18.984375 -31.46875 C 19.148438 -31.757812 19.234375 -32.15625 19.234375 -32.65625 L 19.234375 -32.96875 L 23.65625 -32.96875 L 23.65625 -32.015625 C 23.65625 -30.648438 23.289062 -29.640625 22.5625 -28.984375 C 21.84375 -28.328125 20.863281 -28 19.625 -28 C 18.570312 -28 17.703125 -28.160156 17.015625 -28.484375 C 16.328125 -28.816406 15.71875 -29.15625 15.1875 -29.5 C 14.664062 -29.84375 14.128906 -30.015625 13.578125 -30.015625 C 13.160156 -30.015625 12.863281 -29.875 12.6875 -29.59375 C 12.519531 -29.3125 12.4375 -28.910156 12.4375 -28.390625 Z M 22.703125 0 L 21.203125 -4.5 L 10.421875 -4.5 L 8.921875 0 L 0.984375 0 L 9.71875 -26.25 L 21.90625 -26.25 L 30.640625 0 Z M 12.390625 -10.421875 L 19.234375 -10.421875 L 15.796875 -20.6875 Z M 12.390625 -10.421875 "/></g></g></g><g fill="#ffffff" fill-opacity="1"><g transform="translate(239.638199, 175.675495)"><g><path d="M 15.75 0.625 C 13.070312 0.625 10.816406 0.238281 8.984375 -0.53125 C 7.148438 -1.3125 5.671875 -2.359375 4.546875 -3.671875 C 3.429688 -4.984375 2.625 -6.457031 2.125 -8.09375 C 1.625 -9.726562 1.375 -11.382812 1.375 -13.0625 C 1.375 -14.726562 1.625 -16.382812 2.125 -18.03125 C 2.625 -19.675781 3.429688 -21.160156 4.546875 -22.484375 C 5.671875 -23.816406 7.148438 -24.882812 8.984375 -25.6875 C 10.816406 -26.488281 13.070312 -26.890625 15.75 -26.890625 C 18.4375 -26.890625 20.703125 -26.488281 22.546875 -25.6875 C 24.390625 -24.882812 25.863281 -23.8125 26.96875 -22.46875 C 28.070312 -21.125 28.875 -19.632812 29.375 -18 C 29.875 -16.375 30.125 -14.726562 30.125 -13.0625 C 30.125 -11.382812 29.875 -9.726562 29.375 -8.09375 C 28.875 -6.457031 28.070312 -4.984375 26.96875 -3.671875 C 25.863281 -2.359375 24.390625 -1.3125 22.546875 -0.53125 C 20.703125 0.238281 18.4375 0.625 15.75 0.625 Z M 9.640625 -13.0625 C 9.640625 -11.5625 9.796875 -10.265625 10.109375 -9.171875 C 10.421875 -8.085938 11.019531 -7.253906 11.90625 -6.671875 C 12.789062 -6.085938 14.070312 -5.796875 15.75 -5.796875 C 17.46875 -5.796875 18.765625 -6.085938 19.640625 -6.671875 C 20.523438 -7.253906 21.117188 -8.085938 21.421875 -9.171875 C 21.722656 -10.265625 21.875 -11.5625 21.875 -13.0625 C 21.875 -14.625 21.722656 -15.957031 21.421875 -17.0625 C 21.117188 -18.164062 20.523438 -19.003906 19.640625 -19.578125 C 18.765625 -20.160156 17.46875 -20.453125 15.75 -20.453125 C 14.070312 -20.453125 12.789062 -20.160156 11.90625 -19.578125 C 11.019531 -19.003906 10.421875 -18.164062 10.109375 -17.0625 C 9.796875 -15.957031 9.640625 -14.625 9.640625 -13.0625 Z M 9.640625 -13.0625 "/></g></g></g><g fill="#ffffff" fill-opacity="1"><g transform="translate(269.247487, 175.675495)"><g/></g></g><g fill="#ffffff" fill-opacity="1"><g transform="translate(277.616986, 175.675495)"><g><path d="M 9.984375 -6.234375 L 21.28125 -6.234375 L 21.28125 0 L 1.96875 0 L 1.96875 -26.25 L 9.984375 -26.25 Z M 9.984375 -6.234375 "/></g></g></g><g fill="#ffffff" fill-opacity="1"><g transform="translate(298.185545, 175.675495)"><g><path d="M 1.78125 -10.109375 L 1.78125 -26.25 L 9.71875 -26.25 L 9.71875 -11.140625 C 9.71875 -9.140625 10.09375 -7.75 10.84375 -6.96875 C 11.59375 -6.1875 12.78125 -5.796875 14.40625 -5.796875 C 16.070312 -5.796875 17.28125 -6.1875 18.03125 -6.96875 C 18.78125 -7.75 19.15625 -9.140625 19.15625 -11.140625 L 19.15625 -26.25 L 27.046875 -26.25 L 27.046875 -10.109375 C 27.046875 -2.953125 22.832031 0.625 14.40625 0.625 C 10.25 0.625 7.101562 -0.265625 4.96875 -2.046875 C 2.84375 -3.835938 1.78125 -6.523438 1.78125 -10.109375 Z M 1.78125 -10.109375 "/></g></g></g><g fill="#ffffff" fill-opacity="1"><g transform="translate(325.110251, 175.675495)"><g><path d="M 15.5625 0.625 C 12.945312 0.625 10.734375 0.242188 8.921875 -0.515625 C 7.109375 -1.273438 5.644531 -2.300781 4.53125 -3.59375 C 3.425781 -4.882812 2.625 -6.351562 2.125 -8 C 1.625 -9.644531 1.375 -11.332031 1.375 -13.0625 C 1.375 -14.78125 1.625 -16.460938 2.125 -18.109375 C 2.625 -19.753906 3.425781 -21.234375 4.53125 -22.546875 C 5.644531 -23.859375 7.109375 -24.910156 8.921875 -25.703125 C 10.734375 -26.492188 12.945312 -26.890625 15.5625 -26.890625 C 18.789062 -26.890625 21.398438 -26.472656 23.390625 -25.640625 C 25.378906 -24.816406 26.859375 -23.554688 27.828125 -21.859375 C 28.804688 -20.160156 29.390625 -17.992188 29.578125 -15.359375 L 21.4375 -15.359375 C 21.363281 -16.441406 21.15625 -17.363281 20.8125 -18.125 C 20.46875 -18.882812 19.894531 -19.460938 19.09375 -19.859375 C 18.289062 -20.253906 17.175781 -20.453125 15.75 -20.453125 C 13.59375 -20.453125 12.035156 -19.835938 11.078125 -18.609375 C 10.117188 -17.390625 9.640625 -15.539062 9.640625 -13.0625 C 9.640625 -10.664062 10.082031 -8.851562 10.96875 -7.625 C 11.863281 -6.40625 13.378906 -5.796875 15.515625 -5.796875 C 17.703125 -5.796875 19.21875 -6.222656 20.0625 -7.078125 C 20.90625 -7.941406 21.390625 -9.253906 21.515625 -11.015625 L 29.734375 -11.015625 C 29.523438 -8.171875 28.929688 -5.898438 27.953125 -4.203125 C 26.984375 -2.503906 25.503906 -1.273438 23.515625 -0.515625 C 21.523438 0.242188 18.875 0.625 15.5625 0.625 Z M 15.5625 0.625 "/></g></g></g><g fill="#ffffff" fill-opacity="1"><g transform="translate(354.127358, 175.675495)"><g><path d="M 22.703125 0 L 21.203125 -4.5 L 10.421875 -4.5 L 8.921875 0 L 0.984375 0 L 9.71875 -26.25 L 21.90625 -26.25 L 30.640625 0 Z M 12.390625 -10.421875 L 19.234375 -10.421875 L 15.796875 -20.6875 Z M 12.390625 -10.421875 "/></g></g></g><g fill="#ffffff" fill-opacity="1"><g transform="translate(383.855092, 175.675495)"><g><path d="M 1.1875 -8.453125 L 8.890625 -8.453125 C 8.960938 -7.921875 9.15625 -7.390625 9.46875 -6.859375 C 9.789062 -6.335938 10.265625 -5.898438 10.890625 -5.546875 C 11.523438 -5.191406 12.367188 -5.015625 13.421875 -5.015625 C 14.765625 -5.015625 15.765625 -5.238281 16.421875 -5.6875 C 17.078125 -6.132812 17.40625 -6.738281 17.40625 -7.5 C 17.40625 -8.257812 17.1875 -8.820312 16.75 -9.1875 C 16.320312 -9.5625 15.6875 -9.800781 14.84375 -9.90625 L 9.28125 -10.5 C 6.851562 -10.757812 4.960938 -11.566406 3.609375 -12.921875 C 2.253906 -14.285156 1.578125 -16.113281 1.578125 -18.40625 C 1.578125 -20.957031 2.546875 -23.007812 4.484375 -24.5625 C 6.421875 -26.113281 9.320312 -26.890625 13.1875 -26.890625 C 15.976562 -26.890625 18.226562 -26.5 19.9375 -25.71875 C 21.644531 -24.945312 22.914062 -23.914062 23.75 -22.625 C 24.582031 -21.332031 25.050781 -19.910156 25.15625 -18.359375 L 17.328125 -18.359375 C 17.222656 -19.222656 16.820312 -19.910156 16.125 -20.421875 C 15.425781 -20.941406 14.460938 -21.203125 13.234375 -21.203125 C 12.148438 -21.203125 11.265625 -21.007812 10.578125 -20.625 C 9.898438 -20.25 9.5625 -19.703125 9.5625 -18.984375 C 9.5625 -18.410156 9.753906 -17.925781 10.140625 -17.53125 C 10.535156 -17.132812 11.207031 -16.894531 12.15625 -16.8125 L 16.703125 -16.421875 C 19.753906 -16.160156 21.960938 -15.316406 23.328125 -13.890625 C 24.703125 -12.472656 25.390625 -10.554688 25.390625 -8.140625 C 25.390625 -6.421875 24.992188 -4.894531 24.203125 -3.5625 C 23.410156 -2.238281 22.132812 -1.203125 20.375 -0.453125 C 18.613281 0.296875 16.242188 0.671875 13.265625 0.671875 C 11.109375 0.671875 9.28125 0.414062 7.78125 -0.09375 C 6.28125 -0.613281 5.0625 -1.304688 4.125 -2.171875 C 3.1875 -3.035156 2.488281 -4.007812 2.03125 -5.09375 C 1.570312 -6.175781 1.289062 -7.296875 1.1875 -8.453125 Z M 1.1875 -8.453125 "/></g></g></g><g fill="#ffffff" fill-opacity="1"><g transform="translate(193.044866, 140.490293)"><g><path d="M 29.75 -24.890625 L 29.75 0 L 26.640625 0 L 26.640625 -22.5625 L 18.265625 0 L 14.078125 0 L 5.65625 -22.5625 L 5.65625 0 L 2.546875 0 L 2.546875 -24.890625 L 7.96875 -24.890625 L 16.203125 -2.8125 L 24.40625 -24.890625 Z M 29.75 -24.890625 "/></g></g></g><g fill="#ffffff" fill-opacity="1"><g transform="translate(223.540651, 140.490293)"><g><path d="M 5.65625 -2.5 L 21.0625 -2.5 L 21.0625 0 L 2.546875 0 L 2.546875 -24.890625 L 20.953125 -24.890625 L 20.953125 -22.375 L 5.65625 -22.375 L 5.65625 -14.03125 L 19.828125 -14.03125 L 19.828125 -11.5625 L 5.65625 -11.5625 Z M 5.65625 -2.5 "/></g></g></g><g fill="#ffffff" fill-opacity="1"><g transform="translate(245.168315, 140.490293)"><g><path d="M 21 -6.59375 L 21 -3.96875 C 21 -3.039062 21.050781 -2.265625 21.15625 -1.640625 C 21.269531 -1.023438 21.378906 -0.476562 21.484375 0 L 18.453125 0 C 18.328125 -0.425781 18.21875 -0.945312 18.125 -1.5625 C 18.039062 -2.1875 18 -2.953125 18 -3.859375 L 18 -6.140625 C 18 -7.910156 17.535156 -9.1875 16.609375 -9.96875 C 15.691406 -10.757812 14.375 -11.15625 12.65625 -11.15625 L 5.65625 -11.15625 L 5.65625 0 L 2.546875 0 L 2.546875 -24.890625 L 14.140625 -24.890625 C 16.710938 -24.890625 18.628906 -24.296875 19.890625 -23.109375 C 21.148438 -21.921875 21.78125 -20.332031 21.78125 -18.34375 C 21.78125 -16.664062 21.320312 -15.273438 20.40625 -14.171875 C 19.5 -13.078125 18.347656 -12.367188 16.953125 -12.046875 C 17.753906 -11.828125 18.453125 -11.519531 19.046875 -11.125 C 19.648438 -10.738281 20.125 -10.191406 20.46875 -9.484375 C 20.820312 -8.773438 21 -7.8125 21 -6.59375 Z M 13.765625 -13.46875 C 15.515625 -13.46875 16.742188 -13.878906 17.453125 -14.703125 C 18.171875 -15.523438 18.53125 -16.648438 18.53125 -18.078125 C 18.53125 -19.523438 18.144531 -20.601562 17.375 -21.3125 C 16.613281 -22.019531 15.425781 -22.375 13.8125 -22.375 L 5.65625 -22.375 L 5.65625 -13.46875 Z M 13.765625 -13.46875 "/></g></g></g><g fill="#ffffff" fill-opacity="1"><g transform="translate(267.581765, 140.490293)"><g><path d="M 14.484375 0.640625 C 11.640625 0.640625 9.300781 0.0703125 7.46875 -1.0625 C 5.632812 -2.195312 4.273438 -3.75 3.390625 -5.71875 C 2.503906 -7.695312 2.0625 -9.945312 2.0625 -12.46875 C 2.0625 -14.957031 2.507812 -17.1875 3.40625 -19.15625 C 4.300781 -21.125 5.671875 -22.679688 7.515625 -23.828125 C 9.367188 -24.984375 11.71875 -25.5625 14.5625 -25.5625 C 18.394531 -25.5625 21.234375 -24.675781 23.078125 -22.90625 C 24.929688 -21.132812 26.007812 -18.703125 26.3125 -15.609375 L 23.171875 -15.609375 C 22.921875 -18.046875 22.082031 -19.882812 20.65625 -21.125 C 19.238281 -22.363281 17.179688 -22.984375 14.484375 -22.984375 C 11.390625 -22.984375 9.085938 -22.101562 7.578125 -20.34375 C 6.066406 -18.582031 5.3125 -15.957031 5.3125 -12.46875 C 5.3125 -9 6.050781 -6.378906 7.53125 -4.609375 C 9.019531 -2.835938 11.3125 -1.953125 14.40625 -1.953125 C 17.226562 -1.953125 19.363281 -2.648438 20.8125 -4.046875 C 22.257812 -5.441406 23.066406 -7.398438 23.234375 -9.921875 L 26.421875 -9.921875 C 26.296875 -7.816406 25.796875 -5.972656 24.921875 -4.390625 C 24.046875 -2.804688 22.753906 -1.570312 21.046875 -0.6875 C 19.335938 0.195312 17.148438 0.640625 14.484375 0.640625 Z M 14.484375 0.640625 "/></g></g></g><g fill="#ffffff" fill-opacity="1"><g transform="translate(294.0738, 140.490293)"><g><path d="M 5.65625 -2.5 L 21.0625 -2.5 L 21.0625 0 L 2.546875 0 L 2.546875 -24.890625 L 20.953125 -24.890625 L 20.953125 -22.375 L 5.65625 -22.375 L 5.65625 -14.03125 L 19.828125 -14.03125 L 19.828125 -11.5625 L 5.65625 -11.5625 Z M 5.65625 -2.5 "/></g></g></g><g fill="#ffffff" fill-opacity="1"><g transform="translate(315.701465, 140.490293)"><g><path d="M 21.703125 0 L 19.265625 -6.359375 L 6.921875 -6.359375 L 4.484375 0 L 1.390625 0 L 10.8125 -24.890625 L 15.421875 -24.890625 L 24.84375 0 Z M 7.859375 -8.875 L 18.34375 -8.875 L 13.09375 -22.640625 Z M 7.859375 -8.875 "/></g></g></g><g fill="#ffffff" fill-opacity="1"><g transform="translate(340.060667, 140.490293)"><g><path d="M 21 -6.59375 L 21 -3.96875 C 21 -3.039062 21.050781 -2.265625 21.15625 -1.640625 C 21.269531 -1.023438 21.378906 -0.476562 21.484375 0 L 18.453125 0 C 18.328125 -0.425781 18.21875 -0.945312 18.125 -1.5625 C 18.039062 -2.1875 18 -2.953125 18 -3.859375 L 18 -6.140625 C 18 -7.910156 17.535156 -9.1875 16.609375 -9.96875 C 15.691406 -10.757812 14.375 -11.15625 12.65625 -11.15625 L 5.65625 -11.15625 L 5.65625 0 L 2.546875 0 L 2.546875 -24.890625 L 14.140625 -24.890625 C 16.710938 -24.890625 18.628906 -24.296875 19.890625 -23.109375 C 21.148438 -21.921875 21.78125 -20.332031 21.78125 -18.34375 C 21.78125 -16.664062 21.320312 -15.273438 20.40625 -14.171875 C 19.5 -13.078125 18.347656 -12.367188 16.953125 -12.046875 C 17.753906 -11.828125 18.453125 -11.519531 19.046875 -11.125 C 19.648438 -10.738281 20.125 -10.191406 20.46875 -9.484375 C 20.820312 -8.773438 21 -7.8125 21 -6.59375 Z M 13.765625 -13.46875 C 15.515625 -13.46875 16.742188 -13.878906 17.453125 -14.703125 C 18.171875 -15.523438 18.53125 -16.648438 18.53125 -18.078125 C 18.53125 -19.523438 18.144531 -20.601562 17.375 -21.3125 C 16.613281 -22.019531 15.425781 -22.375 13.8125 -22.375 L 5.65625 -22.375 L 5.65625 -13.46875 Z M 13.765625 -13.46875 "/></g></g></g><g fill="#ffffff" fill-opacity="1"><g transform="translate(362.474112, 140.490293)"><g><path d="M 16.125 -22.375 L 10.859375 -22.375 L 10.859375 -2.5 L 16.125 -2.5 L 16.125 0 L 2.5 0 L 2.5 -2.5 L 7.78125 -2.5 L 7.78125 -22.375 L 2.5 -22.375 L 2.5 -24.890625 L 16.125 -24.890625 Z M 16.125 -22.375 "/></g></g></g><g fill="#ffffff" fill-opacity="1"><g transform="translate(379.312253, 140.490293)"><g><path d="M 21.703125 0 L 19.265625 -6.359375 L 6.921875 -6.359375 L 4.484375 0 L 1.390625 0 L 10.8125 -24.890625 L 15.421875 -24.890625 L 24.84375 0 Z M 7.859375 -8.875 L 18.34375 -8.875 L 13.09375 -22.640625 Z M 7.859375 -8.875 "/></g></g></g><g fill="#ffffff" fill-opacity="1"><g transform="translate(259.493664, 207.971841)"><g><path d="M 2.25 -1.109375 L 6.765625 -1.109375 L 6.765625 0 L 0.875 0 L 0.875 -8.90625 L 2.25 -8.90625 Z M 2.25 -1.109375 "/></g></g></g><g fill="#ffffff" fill-opacity="1"><g transform="translate(265.683271, 207.971841)"><g><path d="M 5.25 0.234375 C 4.1875 0.234375 3.320312 0.0234375 2.65625 -0.390625 C 1.988281 -0.804688 1.5 -1.367188 1.1875 -2.078125 C 0.882812 -2.785156 0.734375 -3.578125 0.734375 -4.453125 C 0.734375 -5.328125 0.882812 -6.113281 1.1875 -6.8125 C 1.5 -7.519531 1.988281 -8.082031 2.65625 -8.5 C 3.320312 -8.925781 4.1875 -9.140625 5.25 -9.140625 C 6.039062 -9.140625 6.722656 -9.015625 7.296875 -8.765625 C 7.867188 -8.523438 8.332031 -8.191406 8.6875 -7.765625 C 9.050781 -7.335938 9.320312 -6.835938 9.5 -6.265625 C 9.675781 -5.703125 9.765625 -5.097656 9.765625 -4.453125 C 9.765625 -3.585938 9.609375 -2.800781 9.296875 -2.09375 C 8.992188 -1.382812 8.507812 -0.816406 7.84375 -0.390625 C 7.175781 0.0234375 6.3125 0.234375 5.25 0.234375 Z M 2.1875 -4.453125 C 2.1875 -3.285156 2.421875 -2.398438 2.890625 -1.796875 C 3.367188 -1.203125 4.15625 -0.90625 5.25 -0.90625 C 6.332031 -0.90625 7.113281 -1.203125 7.59375 -1.796875 C 8.070312 -2.398438 8.3125 -3.285156 8.3125 -4.453125 C 8.3125 -5.628906 8.070312 -6.515625 7.59375 -7.109375 C 7.113281 -7.703125 6.332031 -8 5.25 -8 C 4.15625 -8 3.367188 -7.703125 2.890625 -7.109375 C 2.421875 -6.515625 2.1875 -5.628906 2.1875 -4.453125 Z M 2.1875 -4.453125 "/></g></g></g><g fill="#ffffff" fill-opacity="1"><g transform="translate(275.503658, 207.971841)"><g><path d="M 0.515625 0 L 0.515625 -1.109375 L 3.625 -1.109375 L 3.625 -8.90625 L 5.015625 -8.90625 L 5.015625 -1.96875 C 5.015625 -1.300781 4.859375 -0.804688 4.546875 -0.484375 C 4.242188 -0.160156 3.6875 0 2.875 0 Z M 0.515625 0 "/></g></g></g><g fill="#ffffff" fill-opacity="1"><g transform="translate(280.64824, 207.971841)"><g><path d="M 7.75 0 L 6.96875 -2.109375 L 2.65625 -2.109375 L 1.859375 0 L 0.46875 0 L 3.78125 -8.90625 L 5.859375 -8.90625 L 9.15625 0 Z M 3.0625 -3.234375 L 6.546875 -3.234375 L 4.8125 -7.921875 Z M 3.0625 -3.234375 "/></g></g></g><g fill="#ffffff" fill-opacity="1"><g transform="translate(289.557579, 207.971841)"><g/></g></g><g fill="#ffffff" fill-opacity="1"><g transform="translate(292.169996, 207.971841)"><g><path d="M 5.25 0.234375 C 4.1875 0.234375 3.320312 0.0234375 2.65625 -0.390625 C 1.988281 -0.804688 1.5 -1.367188 1.1875 -2.078125 C 0.882812 -2.785156 0.734375 -3.578125 0.734375 -4.453125 C 0.734375 -5.328125 0.882812 -6.113281 1.1875 -6.8125 C 1.5 -7.519531 1.988281 -8.082031 2.65625 -8.5 C 3.320312 -8.925781 4.1875 -9.140625 5.25 -9.140625 C 6.039062 -9.140625 6.722656 -9.015625 7.296875 -8.765625 C 7.867188 -8.523438 8.332031 -8.191406 8.6875 -7.765625 C 9.050781 -7.335938 9.320312 -6.835938 9.5 -6.265625 C 9.675781 -5.703125 9.765625 -5.097656 9.765625 -4.453125 C 9.765625 -3.585938 9.609375 -2.800781 9.296875 -2.09375 C 8.992188 -1.382812 8.507812 -0.816406 7.84375 -0.390625 C 7.175781 0.0234375 6.3125 0.234375 5.25 0.234375 Z M 2.1875 -4.453125 C 2.1875 -3.285156 2.421875 -2.398438 2.890625 -1.796875 C 3.367188 -1.203125 4.15625 -0.90625 5.25 -0.90625 C 6.332031 -0.90625 7.113281 -1.203125 7.59375 -1.796875 C 8.070312 -2.398438 8.3125 -3.285156 8.3125 -4.453125 C 8.3125 -5.628906 8.070312 -6.515625 7.59375 -7.109375 C 7.113281 -7.703125 6.332031 -8 5.25 -8 C 4.15625 -8 3.367188 -7.703125 2.890625 -7.109375 C 2.421875 -6.515625 2.1875 -5.628906 2.1875 -4.453125 Z M 2.1875 -4.453125 "/></g></g></g><g fill="#ffffff" fill-opacity="1"><g transform="translate(301.990384, 207.971841)"><g><path d="M 7.328125 -8.90625 L 8.703125 -8.90625 L 8.703125 0 L 6.328125 0 L 2.890625 -6.625 C 2.765625 -6.882812 2.644531 -7.128906 2.53125 -7.359375 C 2.425781 -7.597656 2.332031 -7.820312 2.25 -8.03125 L 2.25 0 L 0.875 0 L 0.875 -8.90625 L 3.25 -8.90625 L 6.6875 -2.25 C 6.789062 -2.070312 6.894531 -1.851562 7 -1.59375 C 7.113281 -1.34375 7.222656 -1.101562 7.328125 -0.875 Z M 7.328125 -8.90625 "/></g></g></g><g fill="#ffffff" fill-opacity="1"><g transform="translate(310.88633, 207.971841)"><g><path d="M 2.25 -1.109375 L 6.765625 -1.109375 L 6.765625 0 L 0.875 0 L 0.875 -8.90625 L 2.25 -8.90625 Z M 2.25 -1.109375 "/></g></g></g><g fill="#ffffff" fill-opacity="1"><g transform="translate(317.075938, 207.971841)"><g><path d="M 5.890625 -7.796875 L 4.078125 -7.796875 L 4.078125 -1.109375 L 5.890625 -1.109375 L 5.890625 0 L 0.875 0 L 0.875 -1.109375 L 2.6875 -1.109375 L 2.6875 -7.796875 L 0.875 -7.796875 L 0.875 -8.90625 L 5.890625 -8.90625 Z M 5.890625 -7.796875 "/></g></g></g><g fill="#ffffff" fill-opacity="1"><g transform="translate(323.158364, 207.971841)"><g><path d="M 7.328125 -8.90625 L 8.703125 -8.90625 L 8.703125 0 L 6.328125 0 L 2.890625 -6.625 C 2.765625 -6.882812 2.644531 -7.128906 2.53125 -7.359375 C 2.425781 -7.597656 2.332031 -7.820312 2.25 -8.03125 L 2.25 0 L 0.875 0 L 0.875 -8.90625 L 3.25 -8.90625 L 6.6875 -2.25 C 6.789062 -2.070312 6.894531 -1.851562 7 -1.59375 C 7.113281 -1.34375 7.222656 -1.101562 7.328125 -0.875 Z M 7.328125 -8.90625 "/></g></g></g><g fill="#ffffff" fill-opacity="1"><g transform="translate(332.05431, 207.971841)"><g><path d="M 2.25 -1.109375 L 7.625 -1.109375 L 7.625 0 L 0.875 0 L 0.875 -8.90625 L 7.59375 -8.90625 L 7.59375 -7.796875 L 2.25 -7.796875 L 2.25 -5.109375 L 7.1875 -5.109375 L 7.1875 -4.015625 L 2.25 -4.015625 Z M 2.25 -1.109375 "/></g></g></g><g clip-path="url(#2f5a53c125)"><g clip-path="url(#f7318c297e)"><g clip-path="url(#db5c01a9f7)"><path fill="#ffbd59" d="M 39.9375 -14.488281 C 22.863281 -31.5625 -4.921875 -31.5625 -21.996094 -14.488281 C -23.183594 -13.300781 -24.296875 -12.050781 -25.335938 -10.738281 C -26.378906 -9.425781 -27.34375 -8.054688 -28.226562 -6.628906 C -29.113281 -5.207031 -29.910156 -3.734375 -30.628906 -2.21875 C -31.34375 -0.703125 -31.96875 0.851562 -32.503906 2.4375 C -33.042969 4.027344 -33.484375 5.640625 -33.835938 7.28125 C -34.1875 8.921875 -34.445312 10.574219 -34.605469 12.246094 C -34.765625 13.914062 -34.832031 15.585938 -34.800781 17.265625 C -34.765625 18.941406 -34.640625 20.609375 -34.417969 22.273438 C -35.808594 27.753906 -36.132812 33.300781 -35.386719 38.90625 C -35.855469 40.738281 -36.203125 42.59375 -36.433594 44.472656 C -36.660156 46.351562 -36.765625 48.238281 -36.75 50.128906 C -36.734375 52.019531 -36.597656 53.902344 -36.335938 55.777344 C -36.074219 57.652344 -35.695312 59.5 -35.195312 61.328125 C -34.695312 63.152344 -34.082031 64.9375 -33.351562 66.679688 C -32.617188 68.425781 -31.777344 70.117188 -30.828125 71.753906 C -29.878906 73.390625 -28.828125 74.957031 -27.671875 76.457031 C -26.519531 77.957031 -25.273438 79.378906 -23.9375 80.714844 C -6.863281 97.789062 20.921875 97.789062 37.996094 80.714844 C 39.179688 79.53125 40.292969 78.28125 41.335938 76.964844 C 42.378906 75.652344 43.339844 74.28125 44.226562 72.859375 C 45.109375 71.433594 45.910156 69.964844 46.625 68.445312 C 47.339844 66.929688 47.96875 65.375 48.503906 63.789062 C 49.039062 62.199219 49.484375 60.585938 49.835938 58.945312 C 50.1875 57.304688 50.441406 55.652344 50.605469 53.980469 C 50.765625 52.3125 50.828125 50.640625 50.796875 48.964844 C 50.765625 47.285156 50.636719 45.617188 50.414062 43.957031 C 51.804688 38.472656 52.128906 32.929688 51.386719 27.320312 C 51.855469 25.488281 52.203125 23.632812 52.429688 21.753906 C 52.660156 19.875 52.765625 17.992188 52.75 16.097656 C 52.734375 14.207031 52.59375 12.324219 52.335938 10.449219 C 52.074219 8.574219 51.695312 6.726562 51.195312 4.902344 C 50.695312 3.078125 50.078125 1.292969 49.347656 -0.453125 C 48.617188 -2.199219 47.777344 -3.890625 46.828125 -5.527344 C 45.878906 -7.164062 44.824219 -8.730469 43.671875 -10.230469 C 42.519531 -11.730469 41.273438 -13.148438 39.9375 -14.488281 Z M -33.953125 25.082031 C -33.570312 27.003906 -33.0625 28.890625 -32.425781 30.746094 C -33.269531 32.503906 -33.996094 34.3125 -34.601562 36.171875 C -34.867188 32.445312 -34.648438 28.75 -33.953125 25.082031 Z M 39.171875 46.699219 C 22.511719 63.359375 -4.597656 63.359375 -21.257812 46.699219 C -25.796875 42.160156 -29.140625 36.863281 -31.277344 30.8125 C -29.203125 26.605469 -26.503906 22.847656 -23.1875 19.535156 C -6.527344 2.875 20.582031 2.875 37.242188 19.535156 C 41.789062 24.070312 45.132812 29.367188 47.277344 35.417969 C 45.203125 39.625 42.503906 43.382812 39.183594 46.691406 Z M 47.734375 36.839844 C 48.460938 39.148438 48.992188 41.5 49.320312 43.898438 C 48.371094 47.578125 46.953125 51.066406 45.066406 54.363281 C 43.179688 57.664062 40.890625 60.652344 38.199219 63.335938 C 21.539062 79.996094 -5.570312 79.996094 -22.230469 63.335938 C -23.867188 61.703125 -25.359375 59.949219 -26.707031 58.074219 C -28.058594 56.195312 -29.246094 54.222656 -30.273438 52.152344 C -31.304688 50.082031 -32.15625 47.941406 -32.835938 45.730469 C -33.511719 43.523438 -34.007812 41.273438 -34.320312 38.980469 C -33.714844 36.644531 -32.917969 34.375 -31.925781 32.171875 C -29.710938 37.972656 -26.40625 43.0625 -22.011719 47.449219 C -4.9375 64.523438 22.84375 64.523438 39.917969 47.449219 C 43.070312 44.308594 45.679688 40.769531 47.746094 36.828125 Z M 37.980469 18.789062 C 20.90625 1.714844 -6.878906 1.714844 -23.953125 18.789062 C -27.097656 21.929688 -29.699219 25.464844 -31.765625 29.398438 C -32.492188 27.089844 -33.023438 24.738281 -33.351562 22.339844 C -32.402344 18.660156 -30.980469 15.171875 -29.09375 11.875 C -27.207031 8.578125 -24.917969 5.585938 -22.230469 2.902344 C -5.570312 -13.753906 21.539062 -13.757812 38.199219 2.902344 C 39.835938 4.535156 41.328125 6.289062 42.675781 8.167969 C 44.027344 10.042969 45.214844 12.015625 46.246094 14.085938 C 47.273438 16.15625 48.125 18.296875 48.804688 20.507812 C 49.484375 22.71875 49.980469 24.96875 50.289062 27.257812 C 49.6875 29.597656 48.886719 31.867188 47.894531 34.066406 C 45.683594 28.265625 42.382812 23.171875 37.996094 18.78125 Z M 37.242188 79.964844 C 20.582031 96.625 -6.527344 96.621094 -23.1875 79.964844 C -24.414062 78.734375 -25.5625 77.4375 -26.632812 76.066406 C -27.703125 74.699219 -28.683594 73.269531 -29.578125 71.78125 C -30.476562 70.292969 -31.277344 68.757812 -31.984375 67.167969 C -32.691406 65.582031 -33.300781 63.960938 -33.808594 62.300781 C -34.320312 60.640625 -34.726562 58.953125 -35.03125 57.242188 C -35.335938 55.53125 -35.53125 53.8125 -35.628906 52.078125 C -35.722656 50.34375 -35.710938 48.609375 -35.589844 46.875 C -35.472656 45.140625 -35.25 43.421875 -34.921875 41.71875 C -34.085938 45.953125 -32.648438 49.976562 -30.609375 53.789062 C -28.574219 57.597656 -26.027344 61.027344 -22.96875 64.078125 C -5.894531 81.152344 21.890625 81.152344 38.964844 64.078125 C 41.40625 61.644531 43.527344 58.957031 45.328125 56.015625 C 47.132812 53.078125 48.566406 49.96875 49.628906 46.6875 C 49.851562 49.746094 49.746094 52.789062 49.316406 55.820312 C 48.882812 58.855469 48.132812 61.804688 47.0625 64.675781 C 45.992188 67.546875 44.632812 70.273438 42.976562 72.847656 C 41.320312 75.425781 39.410156 77.796875 37.242188 79.964844 Z M 49.941406 41.15625 C 49.558594 39.234375 49.050781 37.34375 48.414062 35.492188 C 49.261719 33.726562 49.992188 31.914062 50.597656 30.054688 C 50.863281 33.78125 50.648438 37.476562 49.949219 41.144531 Z M 50.914062 24.519531 C 50.074219 20.28125 48.636719 16.257812 46.597656 12.449219 C 44.5625 8.636719 42.011719 5.207031 38.957031 2.15625 C 21.882812 -14.917969 -5.902344 -14.917969 -22.976562 2.15625 C -25.417969 4.59375 -27.539062 7.28125 -29.339844 10.21875 C -31.144531 13.160156 -32.578125 16.269531 -33.640625 19.546875 C -33.863281 16.492188 -33.757812 13.445312 -33.324219 10.414062 C -32.890625 7.378906 -32.140625 4.425781 -31.070312 1.554688 C -30.003906 -1.316406 -28.640625 -4.042969 -26.980469 -6.621094 C -25.324219 -9.199219 -23.414062 -11.570312 -21.246094 -13.738281 C -4.585938 -30.394531 22.523438 -30.398438 39.183594 -13.738281 C 40.414062 -12.507812 41.5625 -11.210938 42.632812 -9.839844 C 43.699219 -8.472656 44.683594 -7.042969 45.578125 -5.554688 C 46.472656 -4.066406 47.273438 -2.527344 47.984375 -0.941406 C 48.691406 0.644531 49.296875 2.265625 49.808594 3.929688 C 50.316406 5.589844 50.726562 7.273438 51.027344 8.984375 C 51.332031 10.695312 51.53125 12.417969 51.625 14.152344 C 51.71875 15.886719 51.707031 17.621094 51.589844 19.351562 C 51.472656 21.085938 51.25 22.804688 50.921875 24.511719 Z M 50.914062 24.519531 " fill-opacity="1" fill-rule="nonzero"/></g></g></g></svg>